<mxfile host="app.diagrams.net" modified="2024-03-22T18:36:38.917Z" agent="Mozilla/5.0 (X11; Linux x86_64; rv:109.0) Gecko/20100101 Firefox/114.0" etag="bUYGoMgSIGn_mHJuoJRo" version="24.0.7" type="device">
  <diagram name="PÃ¡gina-1" id="gHQb96KS4q3t2H0Nk5Vd">
    <mxGraphModel dx="1912" dy="1052" grid="1" gridSize="10" guides="1" tooltips="1" connect="1" arrows="1" fold="1" page="1" pageScale="1" pageWidth="827" pageHeight="1169" background="#cafeab" math="0" shadow="0">
      <root>
        <mxCell id="0" />
        <mxCell id="1" parent="0" />
        <mxCell id="5kBc1PmtwXuqb3jVYr31-7" style="edgeStyle=orthogonalEdgeStyle;rounded=0;orthogonalLoop=1;jettySize=auto;html=1;exitX=0.5;exitY=1;exitDx=0;exitDy=0;entryX=0.5;entryY=0;entryDx=0;entryDy=0;" edge="1" parent="1" source="5kBc1PmtwXuqb3jVYr31-1" target="5kBc1PmtwXuqb3jVYr31-2">
          <mxGeometry relative="1" as="geometry" />
        </mxCell>
        <mxCell id="5kBc1PmtwXuqb3jVYr31-1" value="&lt;font style=&quot;font-size: 25px;&quot;&gt;1&lt;/font&gt;" style="ellipse;whiteSpace=wrap;html=1;aspect=fixed;" vertex="1" parent="1">
          <mxGeometry x="320" y="40" width="80" height="80" as="geometry" />
        </mxCell>
        <mxCell id="5kBc1PmtwXuqb3jVYr31-8" style="rounded=0;orthogonalLoop=1;jettySize=auto;html=1;exitX=0;exitY=1;exitDx=0;exitDy=0;entryX=1;entryY=0;entryDx=0;entryDy=0;" edge="1" parent="1" source="5kBc1PmtwXuqb3jVYr31-2" target="5kBc1PmtwXuqb3jVYr31-3">
          <mxGeometry relative="1" as="geometry" />
        </mxCell>
        <mxCell id="5kBc1PmtwXuqb3jVYr31-10" style="rounded=0;orthogonalLoop=1;jettySize=auto;html=1;exitX=1;exitY=1;exitDx=0;exitDy=0;entryX=0;entryY=0;entryDx=0;entryDy=0;" edge="1" parent="1" source="5kBc1PmtwXuqb3jVYr31-2" target="5kBc1PmtwXuqb3jVYr31-6">
          <mxGeometry relative="1" as="geometry" />
        </mxCell>
        <mxCell id="5kBc1PmtwXuqb3jVYr31-2" value="&lt;font style=&quot;font-size: 25px;&quot;&gt;2&lt;/font&gt;" style="ellipse;whiteSpace=wrap;html=1;aspect=fixed;" vertex="1" parent="1">
          <mxGeometry x="320" y="160" width="80" height="80" as="geometry" />
        </mxCell>
        <mxCell id="5kBc1PmtwXuqb3jVYr31-9" style="rounded=0;orthogonalLoop=1;jettySize=auto;html=1;exitX=0;exitY=1;exitDx=0;exitDy=0;entryX=1;entryY=0;entryDx=0;entryDy=0;" edge="1" parent="1" source="5kBc1PmtwXuqb3jVYr31-3" target="5kBc1PmtwXuqb3jVYr31-5">
          <mxGeometry relative="1" as="geometry" />
        </mxCell>
        <mxCell id="5kBc1PmtwXuqb3jVYr31-11" style="rounded=0;orthogonalLoop=1;jettySize=auto;html=1;exitX=1;exitY=1;exitDx=0;exitDy=0;entryX=0;entryY=0;entryDx=0;entryDy=0;" edge="1" parent="1" source="5kBc1PmtwXuqb3jVYr31-3" target="5kBc1PmtwXuqb3jVYr31-4">
          <mxGeometry relative="1" as="geometry" />
        </mxCell>
        <mxCell id="5kBc1PmtwXuqb3jVYr31-3" value="&lt;font style=&quot;font-size: 25px;&quot;&gt;3&lt;/font&gt;" style="ellipse;whiteSpace=wrap;html=1;aspect=fixed;" vertex="1" parent="1">
          <mxGeometry x="200" y="280" width="80" height="80" as="geometry" />
        </mxCell>
        <mxCell id="5kBc1PmtwXuqb3jVYr31-4" value="&lt;font style=&quot;font-size: 25px;&quot;&gt;6&lt;/font&gt;" style="ellipse;whiteSpace=wrap;html=1;aspect=fixed;" vertex="1" parent="1">
          <mxGeometry x="320" y="400" width="80" height="80" as="geometry" />
        </mxCell>
        <mxCell id="5kBc1PmtwXuqb3jVYr31-13" style="edgeStyle=orthogonalEdgeStyle;rounded=0;orthogonalLoop=1;jettySize=auto;html=1;exitX=1;exitY=0.5;exitDx=0;exitDy=0;entryX=0;entryY=0.5;entryDx=0;entryDy=0;" edge="1" parent="1" source="5kBc1PmtwXuqb3jVYr31-5" target="5kBc1PmtwXuqb3jVYr31-4">
          <mxGeometry relative="1" as="geometry" />
        </mxCell>
        <mxCell id="5kBc1PmtwXuqb3jVYr31-5" value="&lt;font style=&quot;font-size: 25px;&quot;&gt;4&lt;/font&gt;" style="ellipse;whiteSpace=wrap;html=1;aspect=fixed;" vertex="1" parent="1">
          <mxGeometry x="80" y="400" width="80" height="80" as="geometry" />
        </mxCell>
        <mxCell id="5kBc1PmtwXuqb3jVYr31-12" style="rounded=0;orthogonalLoop=1;jettySize=auto;html=1;exitX=0;exitY=1;exitDx=0;exitDy=0;entryX=1;entryY=0;entryDx=0;entryDy=0;" edge="1" parent="1" source="5kBc1PmtwXuqb3jVYr31-6" target="5kBc1PmtwXuqb3jVYr31-4">
          <mxGeometry relative="1" as="geometry" />
        </mxCell>
        <mxCell id="5kBc1PmtwXuqb3jVYr31-6" value="&lt;font style=&quot;font-size: 25px;&quot;&gt;5&lt;/font&gt;" style="ellipse;whiteSpace=wrap;html=1;aspect=fixed;" vertex="1" parent="1">
          <mxGeometry x="440" y="280" width="80" height="80" as="geometry" />
        </mxCell>
      </root>
    </mxGraphModel>
  </diagram>
</mxfile>
